/* XPM */
static char *result[] = {
/* columns rows colors chars-per-pixel */
"94 94 69 1 ",
"  c #1B1D2C",
". c #181E2C",
"X c #1B1E2D",
"o c #1B1C2E",
"O c #191F2F",
"+ c #1B1E2F",
"@ c #1D1C2E",
"# c #1C1D2F",
"$ c #1E1D2F",
"% c #1D1F2E",
"& c #1D1B30",
"* c #1E1B30",
"= c #1B1C30",
"- c #1A1D30",
"; c #191E31",
": c #1B1E31",
"> c #1A1F32",
", c #1C1D31",
"< c #1E1C31",
"1 c #1F1C31",
"2 c #1F1D32",
"3 c #1F1D33",
"4 c #1D1E32",
"5 c #1C1F32",
"6 c #1E1F33",
"7 c #1E1F34",
"8 c #201F31",
"9 c #201E33",
"0 c #201E34",
"q c #211F34",
"w c #211F35",
"e c #221F34",
"r c #17212B",
"t c #18222E",
"y c #1B252F",
"u c #18262F",
"i c #172434",
"p c #1A2030",
"a c #1B2131",
"s c #1B2033",
"d c #1D2331",
"f c #1D2033",
"g c #1E2132",
"h c #1C2232",
"j c #1C2333",
"k c #1D2333",
"l c #192531",
"z c #1B2531",
"x c #1C2431",
"c c #1D2532",
"v c #1C2632",
"b c #1E2633",
"n c #1A2334",
"m c #1C2134",
"M c #1C2135",
"N c #1F2034",
"B c #1E2134",
"V c #1F2035",
"C c #1C2335",
"Z c #1E2434",
"A c #1E2535",
"S c #1F2535",
"D c #1F2734",
"F c #1E2537",
"G c #1C2A33",
"H c #1E2738",
"J c #1C2939",
"K c #202135",
"L c #202136",
/* pixels */
"GyvdhhhhhhhhhhhhhhhhhhhhhhhhhhhhhhhhhhhhhhhhkkkkZZSSSSSSSSSSSSSSSSSSSSSSSSSSSSSSSSSSFFAAAAAAHJ",
"urt.pppppppppppppppppppppppppppppppppppppppppppaahkkkkkkkkkkkkkkkkkkkkkkkkkkkkkkkkkkCCjjjjjjni",
"v%8$&&&&&&&&&&&&&&&&&&&&&&&&&&&&&&&&&&&&@@@@@@<<299q999999999999999999999999999999990099999966",
"z $@<<<<<<<<<<<<<<<<<<<<<<<<<<<<<<<<<<<<$$$$$$2299qqqqqqqqqqqqqqqqqqqqqqqqqqqqqqqqqqwwqqqqqqKN",
"z,<<++++++++++++++++++++++++++++++++++++++++++::5fBBBBBBBBBBBBBBBBBBBBBBBBBBBBBBBBBBNNNNqqeeqq",
"z,<<++++++++++++++++++++++++++++++++++++++++++::5fBBBBBBBBBBBBBBBBBBBBBBBBBBBBBBBBBBNNNNqqeeqq",
"z;;,$$$$$$$$$$$$$$$$$$$$$$$$$$$$$$$$$$$$$$$$$$$$29qqqqqqqqqqqqqqqqqqqqqqqqqqqqqqqqqqBBBBBBqqqq",
"z;;,$$$$$$$$$$$$$$$$$$$$$$$$$$$$$$$$$$$$$$$$$$$$29qqqqqqqqqqqqqqqqqqqqqqqqqqqqqqqqqqBBBBBBqqqq",
"l:,,############################################46NNNNNNNNNNNNNNNNNNNNNNNNNNNNNNNNNNNNggmmNNNN",
"l:,,############################################46NNNNNNNNNNNNNNNNNNNNNNNNNNNNNNNNNNNNggmmNNNN",
"y#<<##########################################,,46VVNNNNNNNNNNNNNNNNNNNNNNNNNNNNNNNNeeNNBBNNVV",
"y#<<##########################################,,46VVNNNNNNNNNNNNNNNNNNNNNNNNNNNNNNNNeeNNBBNNVV",
"xX############################################,,46NNNNNNNNNNNNNNNNNNNNNNNNNNNNNNNNNNqqmmqqNNNN",
"xX############################################,,46NNNNNNNNNNNNNNNNNNNNNNNNNNNNNNNNNNqqmmqqNNNN",
"xX############################################,,46NNNNNNNNNNNNNNNNNNNNNNNNNNNNNNNNNNqqmmqqNNNN",
"xX############################################,,46NNNNNNNNNNNNNNNNNNNNNNNNNNNNNNNNNNqqmmqqNNNN",
"xX############################################,,46NNNNNNNNNNNNNNNNNNNNNNNNNNNNNNNNNNqqmmqqNNNN",
"xX############################################,,46NNNNNNNNNNNNNNNNNNNNNNNNNNNNNNNNNNqqmmqqNNNN",
"xX############################################,,46NNNNNNNNNNNNNNNNNNNNNNNNNNNNNNNNNNqqmmqqNNNN",
"xX############################################,,46NNNNNNNNNNNNNNNNNNNNNNNNNNNNNNNNNNqqmmqqNNNN",
"xX############################################,,46NNNNNNNNNNNNNNNNNNNNNNNNNNNNNNNNNNqqmmqqNNNN",
"xX############################################,,46NNNNNNNNNNNNNNNNNNNNNNNNNNNNNNNNNNqqmmqqNNNN",
"xX############################################,,46NNNNNNNNNNNNNNNNNNNNNNNNNNNNNNNNNNqqmmqqNNNN",
"xX############################################,,46NNNNNNNNNNNNNNNNNNNNNNNNNNNNNNNNNNqqmmqqNNNN",
"xX############################################,,46NNNNNNNNNNNNNNNNNNNNNNNNNNNNNNNNNNqqmmqqNNNN",
"xX############################################,,46NNNNNNNNNNNNNNNNNNNNNNNNNNNNNNNNNNqqmmqqNNNN",
"xX############################################,,46NNNNNNNNNNNNNNNNNNNNNNNNNNNNNNNNNNqqmmqqNNNN",
"xX############################################,,46NNNNNNNNNNNNNNNNNNNNNNNNNNNNNNNNNNqqmmqqNNNN",
"xX############################################,,46NNNNNNNNNNNNNNNNNNNNNNNNNNNNNNNNNNqqmmqqNNNN",
"xX############################################,,46NNNNNNNNNNNNNNNNNNNNNNNNNNNNNNNNNNqqmmqqNNNN",
"xX############################################,,46NNNNNNNNNNNNNNNNNNNNNNNNNNNNNNNNNNqqmmqqNNNN",
"xX############################################,,46NNNNNNNNNNNNNNNNNNNNNNNNNNNNNNNNNNqqmmqqNNNN",
"xX############################################,,46NNNNNNNNNNNNNNNNNNNNNNNNNNNNNNNNNNqqmmqqNNNN",
"xX############################################,,46NNNNNNNNNNNNNNNNNNNNNNNNNNNNNNNNNNqqmmqqNNNN",
"xX############################################,,46NNNNNNNNNNNNNNNNNNNNNNNNNNNNNNNNNNqqmmqqNNNN",
"xX############################################,,46NNNNNNNNNNNNNNNNNNNNNNNNNNNNNNNNNNqqmmqqNNNN",
"xX############################################,,46NNNNNNNNNNNNNNNNNNNNNNNNNNNNNNNNNNqqmmqqNNNN",
"xX############################################,,46NNNNNNNNNNNNNNNNNNNNNNNNNNNNNNNNNNqqmmqqNNNN",
"xX############################################,,46NNNNNNNNNNNNNNNNNNNNNNNNNNNNNNNNNNqqmmqqNNNN",
"xX############################################,,46NNNNNNNNNNNNNNNNNNNNNNNNNNNNNNNNNNqqmmqqNNNN",
"xX############################################,,46NNNNNNNNNNNNNNNNNNNNNNNNNNNNNNNNNNqqmmqqNNNN",
"xX############################################,,46NNNNNNNNNNNNNNNNNNNNNNNNNNNNNNNNNNqqmmqqNNNN",
"xX############################################,,46NNNNNNNNNNNNNNNNNNNNNNNNNNNNNNNNNNqqmmqqNNNN",
"xX############################################,,46NNNNNNNNNNNNNNNNNNNNNNNNNNNNNNNNNNqqmmqqNNNN",
"x-,,####################################,,,,,,,46NNNNNNNNNNNNNNNNNNNNNNNNNNNNNNNNNNNwwMMqqNNNN",
"c:,,####################################,,,,,,,,6NNNNNNNNNNNNNNNNNNNNNNNNNNNNNNNNNNNwwMMqqNN6N",
"c:,,,,,,,,,,,,,,,,,,,,,,,,,,,,,,,,,,##,,,,,,,,,,46NN6666666666666666666666666666666600ss996666",
"b544,,,,,,,,,,,,,,,,,,,,,,,,,,,,,,,,##,,,,,,4,,444664444444444444444444444444444444433>>224466",
"bf66444444444444444444444444444444444444444466444,,4,,,,,,,,,,,,,,,,,,,,,,,,,,,,,,,,<<;;$$,,44",
"Df666666666666666666666666666666666666666666NN64,,,,,,,,,,,,,,,,,,,,,,,,,,,,,,,,,,,,<<;;$$,,,,",
"DBN6NNNNNNNNNNNNNNNNNNNNNNNNNNNNNNNNNNNNNNNNNNN6,,,,################################$$OO$$####",
"DBNNNNNNNNNNNNNNNNNNNNNNNNNNNNNNNNNNNNNNNNNNNNN64,,,################################$$OO$$####",
"DBNNNNNNNNNNNNNNNNNNNNNNNNNNNNNNNNNNNNNNNNNNNN64,,,,################################$$OO$$####",
"DBNNNNNNNNNNNNNNNNNNNNNNNNNNNNNNNNNNNNNNNNNNNN64,,,,################################$$OO$$####",
"DBNNNNNNNNNNNNNNNNNNNNNNNNNNNNNNNNNNNNNNNNNNNN64,,,,################################$$OO$$####",
"DBNNNNNNNNNNNNNNNNNNNNNNNNNNNNNNNNNNNNNNNNNNNN64,,,,################################$$OO$$####",
"DBVVNNNNNNNNNNNNNNNNNNNNNNNNNNNNNNNNNNNNNNNNNN64,,##################################$$OO$$####",
"DBVVNNNNNNNNNNNNNNNNNNNNNNNNNNNNNNNNNNNNNNNNNN64,,##################################$$OO$$####",
"DBVVNNNNNNNNNNNNNNNNNNNNNNNNNNNNNNNNNNNNNNNNNN64####################################$$OO$$##,,",
"DBVVNNNNNNNNNNNNNNNNNNNNNNNNNNNNNNNNNNNNNNNNNN64####################################$$OO$$##,,",
"DBNNNNNNNNNNNNNNNNNNNNNNNNNNNNNNNNNNNNNNNNNNNN64,,##################################$$OO$$####",
"DBNNNNNNNNNNNNNNNNNNNNNNNNNNNNNNNNNNNNNNNNNNNN64,,##################################$$OO$$####",
"DBNNNNNNNNNNNNNNNNNNNNNNNNNNNNNNNNNNNNNNNNNNNN64,,##################################$$OO$$####",
"DBNNNNNNNNNNNNNNNNNNNNNNNNNNNNNNNNNNNNNNNNNNNN64,,##################################$$OO$$####",
"DBNNNNNNNNNNNNNNNNNNNNNNNNNNNNNNNNNNNNNNNNNNNN64,,##################################$$OO$$####",
"DBNNNNNNNNNNNNNNNNNNNNNNNNNNNNNNNNNNNNNNNNNNNN64,,##################################$$OO$$####",
"DBNNNNNNNNNNNNNNNNNNNNNNNNNNNNNNNNNNNNNNNNNNNN64,,##################################$$OO$$####",
"DBNNNNNNNNNNNNNNNNNNNNNNNNNNNNNNNNNNNNNNNNNNNN64,,##################################$$OO$$####",
"DBNNNNNNNNNNNNNNNNNNNNNNNNNNNNNNNNNNNNNNNNNNNN64,,##################################$$OO$$####",
"DBNNNNNNNNNNNNNNNNNNNNNNNNNNNNNNNNNNNNNNNNNNNN64,,##################################$$OO$$####",
"DBNNNNNNNNNNNNNNNNNNNNNNNNNNNNNNNNNNNNNNNNNNNN64,,##################################$$OO$$####",
"DBNNNNNNNNNNNNNNNNNNNNNNNNNNNNNNNNNNNNNNNNNNNN64,,##################################$$OO$$####",
"DBNNNNNNNNNNNNNNNNNNNNNNNNNNNNNNNNNNNNNNNNNNNN64,,##################################$$OO$$####",
"DBNNNNNNNNNNNNNNNNNNNNNNNNNNNNNNNNNNNNNNNNNNNN64,,##################################$$OO$$####",
"DBNNNNNNNNNNNNNNNNNNNNNNNNNNNNNNNNNNNNNNNNNNNN64,,##################################$$OO$$####",
"DBNNNNNNNNNNNNNNNNNNNNNNNNNNNNNNNNNNNNNNNNNNNN64,,##################################$$OO$$####",
"DBNNNNNNNNNNNNNNNNNNNNNNNNNNNNNNNNNNNNNNNNNNNN64,,##################################$$OO$$####",
"DBNNNNNNNNNNNNNNNNNNNNNNNNNNNNNNNNNNNNNNNNNNNN64,,##################################$$OO$$####",
"DBNNNNNNNNNNNNNNNNNNNNNNNNNNNNNNNNNNNNNNNNNNNN64,,##################################$$OO$$####",
"DBNNNNNNNNNNNNNNNNNNNNNNNNNNNNNNNNNNNNNNNNNNNN64,,##################################$$OO$$####",
"DBNNNNNNNNNNNNNNNNNNNNNNNNNNNNNNNNNNNNNNNNNNNN64,,##################################$$OO$$####",
"DBNNNNNNNNNNNNNNNNNNNNNNNNNNNNNNNNNNNNNNNNNNNN64,,##################################$$OO$$####",
"DBNNNNNNNNNNNNNNNNNNNNNNNNNNNNNNNNNNNNNNNNNNNN64,,##################################$$OO$$####",
"DBNNNNNNNNNNNNNNNNNNNNNNNNNNNNNNNNNNNNNNNNNNNN64,,##################################$$OO$$####",
"DBNNNNNNNNNNNNNNNNNNNNNNNNNNNNNNNNNNNNNNNNNNNN64,,##################################$$OO$$####",
"DBNNNNNNNNNNNNNNNNNNNNNNNNNNNNNNNNNNNNNNNNNNNN64,,##################################$$OO$$####",
"DBNNNNNNNNNNNNNNNNNNNNNNNNNNNNNNNNNNNNNNNNNNNN64,,##################################$$OO$$####",
"DBNNNNNNNNNNNNNNNNNNNNNNNNNNNNNNNNNNNNNNNNNNNN64,,##################################$$OO$$####",
"DBNNNNNNNNNNNNNNNNNNNNNNNNNNNNNNNNNNNNNNNNNNNN64,,##################################$$OO$$####",
"DBNNNNNNNNNNNNNNNNNNNNNNNNNNNNNNNNNNNNNNNNNNNN64,,##################################$$OO$$####",
"DBNNNNNNNNNNNNNNNNNNNNNNNNNNNNNNNNNNNNNNNNNNNN64,,##################################$$OO$$####",
"DBNNNNNNNNNNNNNNNNNNNNNNNNNNNNNNNNNNNNNNNNNNNN64,,##################################$$OO$$####",
"DBVLNNNNNNNNNNNNNNNNNNNNNNNNNNNNNNNNNNNNVVVVNN6644##################################11,,::##@$",
"Df776666666666666666666666666666666666667777N664,,oooooooooooooooooooooooooooooooooo**==--oo$8"
};
